REM DIRINDEX 1\2,1\3,1\4,1\5,1\6
REM DIRNAME folder01,folder02,folder03,folder04,folder05,folder06
TITLE ""
FILE "Disc4Track51.mp3" MP3
  TRACK 01 AUDIO
    TITLE "3:cjc030_07601"
    INDEX 01 00:00:00
  TRACK 02 AUDIO
    TITLE "0:"
    INDEX 01 00:01:07
  TRACK 03 AUDIO
    TITLE "4:cjc030_07602"
    INDEX 01 00:01:13
  TRACK 04 AUDIO
    TITLE "0:"
    INDEX 01 00:02:14
  TRACK 05 AUDIO
    TITLE "5:cjc030_07603"
    INDEX 01 00:02:20
  TRACK 06 AUDIO
    TITLE "0:"
    INDEX 01 00:03:31
  TRACK 07 AUDIO
    TITLE "6:cjc030_07604"
    INDEX 01 00:03:45
  TRACK 08 AUDIO
    TITLE "0:"
    INDEX 01 00:07:74
  TRACK 09 AUDIO
    TITLE "3:cjc030_07605"
    INDEX 01 00:08:50
  TRACK 10 AUDIO
    TITLE "0:"
    INDEX 01 00:09:65
  TRACK 11 AUDIO
    TITLE "4:cjc030_07606"
    INDEX 01 00:09:71
  TRACK 12 AUDIO
    TITLE "0:"
    INDEX 01 00:11:05
  TRACK 13 AUDIO
    TITLE "5:cjc030_07607"
    INDEX 01 00:11:11
  TRACK 14 AUDIO
    TITLE "0:"
    INDEX 01 00:12:28
  TRACK 15 AUDIO
    TITLE "6:cjc030_07608"
    INDEX 01 00:12:42
  TRACK 16 AUDIO
    TITLE "0:"
    INDEX 01 00:14:19
  TRACK 17 AUDIO
    TITLE "3:cjc030_07609"
    INDEX 01 00:14:68
  TRACK 18 AUDIO
    TITLE "0:"
    INDEX 01 00:16:02
  TRACK 19 AUDIO
    TITLE "4:cjc030_07610"
    INDEX 01 00:16:12
  TRACK 20 AUDIO
    TITLE "0:"
    INDEX 01 00:17:14
  TRACK 21 AUDIO
    TITLE "5:cjc030_07611"
    INDEX 01 00:17:21
  TRACK 22 AUDIO
    TITLE "0:"
    INDEX 01 00:18:31
  TRACK 23 AUDIO
    TITLE "6:cjc030_07612"
    INDEX 01 00:18:44
  TRACK 24 AUDIO
    TITLE "0:"
    INDEX 01 00:21:29
  TRACK 25 AUDIO
    TITLE "3:cjc030_07613"
    INDEX 01 00:22:01
  TRACK 26 AUDIO
    TITLE "0:"
    INDEX 01 00:23:20
  TRACK 27 AUDIO
    TITLE "4:cjc030_07614"
    INDEX 01 00:23:26
  TRACK 28 AUDIO
    TITLE "0:"
    INDEX 01 00:25:27
  TRACK 29 AUDIO
    TITLE "5:cjc030_07615"
    INDEX 01 00:25:37
  TRACK 30 AUDIO
    TITLE "0:"
    INDEX 01 00:26:52
  TRACK 31 AUDIO
    TITLE "3:cjc030_07616"
    INDEX 01 00:27:34
  TRACK 32 AUDIO
    TITLE "0:"
    INDEX 01 00:28:37
  TRACK 33 AUDIO
    TITLE "4:cjc030_07617"
    INDEX 01 00:28:43
  TRACK 34 AUDIO
    TITLE "0:"
    INDEX 01 00:30:28
  TRACK 35 AUDIO
    TITLE "5:cjc030_07618"
    INDEX 01 00:30:38
  TRACK 36 AUDIO
    TITLE "0:"
    INDEX 01 00:31:39
  TRACK 37 AUDIO
    TITLE "6:cjc030_07619"
    INDEX 01 00:31:53
  TRACK 38 AUDIO
    TITLE "0:"
    INDEX 01 00:33:28
  TRACK 39 AUDIO
    TITLE "3:cjc030_07620"
    INDEX 01 00:34:00
  TRACK 40 AUDIO
    TITLE "0:"
    INDEX 01 00:35:15
  TRACK 41 AUDIO
    TITLE "4:cjc030_07621"
    INDEX 01 00:35:23
  TRACK 42 AUDIO
    TITLE "0:"
    INDEX 01 00:36:42
  TRACK 43 AUDIO
    TITLE "5:cjc030_07622"
    INDEX 01 00:36:52
  TRACK 44 AUDIO
    TITLE "0:"
    INDEX 01 00:37:65
  TRACK 45 AUDIO
    TITLE "3:cjc030_07623"
    INDEX 01 00:38:43
  TRACK 46 AUDIO
    TITLE "0:"
    INDEX 01 00:40:19
  TRACK 47 AUDIO
    TITLE "4:cjc030_07624"
    INDEX 01 00:40:28
  TRACK 48 AUDIO
    TITLE "0:"
    INDEX 01 00:41:69
  TRACK 49 AUDIO
    TITLE "5:cjc030_07625"
    INDEX 01 00:42:02
  TRACK 50 AUDIO
    TITLE "0:"
    INDEX 01 00:43:54
  TRACK 51 AUDIO
    TITLE "3:cjc030_07626"
    INDEX 01 00:44:34
  TRACK 52 AUDIO
    TITLE "0:"
    INDEX 01 00:45:41
  TRACK 53 AUDIO
    TITLE "4:cjc030_07627"
    INDEX 01 00:45:53
  TRACK 54 AUDIO
    TITLE "0:"
    INDEX 01 00:48:02
  TRACK 55 AUDIO
    TITLE "5:cjc030_07628"
    INDEX 01 00:48:12
  TRACK 56 AUDIO
    TITLE "0:"
    INDEX 01 00:49:16
  TRACK 57 AUDIO
    TITLE "6:cjc030_07629"
    INDEX 01 00:49:29
  TRACK 58 AUDIO
    TITLE "0:"
    INDEX 01 00:54:48
  TRACK 59 AUDIO
    TITLE "3:cjc030_07630"
    INDEX 01 00:55:20
  TRACK 60 AUDIO
    TITLE "0:"
    INDEX 01 00:56:31
  TRACK 61 AUDIO
    TITLE "4:cjc030_07631"
    INDEX 01 00:56:41
  TRACK 62 AUDIO
    TITLE "0:"
    INDEX 01 00:57:52
  TRACK 63 AUDIO
    TITLE "5:cjc030_07632"
    INDEX 01 00:57:62
  TRACK 64 AUDIO
    TITLE "0:"
    INDEX 01 00:58:73
